<svg xmlns="http://www.w3.org/2000/svg" version="1.1" xmlns:xlink="http://www.w3.org/1999/xlink" xmlns:svgjs="http://svgjs.dev/svgjs" viewBox="0 0 800 800" opacity="0.25"><defs><filter id="bbburst-blur-1" x="-100%" y="-100%" width="400%" height="400%"><feGaussianBlur in="SourceGraphic" stdDeviation="1"></feGaussianBlur></filter><filter id="bbburst-blur-2" x="-100%" y="-100%" width="400%" height="400%"><feGaussianBlur in="SourceGraphic" stdDeviation="2"></feGaussianBlur></filter><filter id="bbburst-blur-3" x="-100%" y="-100%" width="400%" height="400%"><feGaussianBlur in="SourceGraphic" stdDeviation="4"></feGaussianBlur></filter><filter id="bbburst-blur-4" x="-100%" y="-100%" width="400%" height="400%"><feGaussianBlur in="SourceGraphic" stdDeviation="12"></feGaussianBlur></filter><symbol id="bbburst-shape-1" viewBox="0 0 194 167"><path d="m97 0 96.129 166.5H.871L97 0Z"></path></symbol><symbol id="bbburst-shape-4" viewBox="0 0 149 143"><path d="M71.647 2.781c.898-2.764 4.808-2.764 5.706 0l15.445 47.534a3 3 0 0 0 2.853 2.073h49.98c2.906 0 4.115 3.719 1.764 5.427L106.96 87.193a2.999 2.999 0 0 0-1.09 3.354l15.445 47.534c.898 2.764-2.266 5.062-4.617 3.354l-40.435-29.378a3 3 0 0 0-3.526 0l-40.435 29.378c-2.351 1.708-5.515-.59-4.617-3.354L43.13 90.547a3 3 0 0 0-1.09-3.354L1.605 57.815c-2.35-1.708-1.142-5.427 1.764-5.427h49.98a3 3 0 0 0 2.853-2.073L71.647 2.781Z"></path></symbol><symbol id="bbburst-shape-6" viewBox="0 0 133 116"><path d="M59.7487 10.2513c-13.6683-13.66839-35.8291-13.66839-49.4974 0-13.66839 13.6683-13.66839 35.8291 0 49.4974l49.4974-49.4974ZM66.5 66.5 41.7513 91.2487 66.5 115.997l24.7487-24.7483L66.5 66.5Zm56.249-6.7513c13.668-13.6683 13.668-35.8291 0-49.4974-13.669-13.66839-35.8294-13.66839-49.4977 0l49.4977 49.4974Zm-112.4977 0 31.5 31.5 49.4974-49.4974-31.5-31.5-49.4974 49.4974Zm80.9974 31.5 31.5003-31.5-49.4977-49.4974-31.5 31.5 49.4974 49.4974Z"></path></symbol><symbol id="bbburst-shape-8" viewBox="0 0 87 168"><path d="m12 12 31.2546 18.0749c16.4102 9.4902 20.014 31.6325 7.4603 45.8369L36.3296 92.1884c-12.5684 14.2206-8.9394 36.3916 7.5068 45.8636L75 156" stroke-width="14" stroke-linecap="round" stroke-linejoin="round"></path></symbol><symbol id="bbburst-shape-10" viewBox="0 0 145 145"><circle cx="72.5" cy="72.5" r="61.5" fill="none" stroke-width="22"></circle></symbol></defs><use xlink:href="#bbburst-shape-4" width="12.432476275233018" opacity="0.6343412531736625" transform="matrix(0.7669384530532307,-0.6417206629276615,0.6417206629276615,0.7669384530532307,-15.229990700452078,38.68361950750915)" fill="#00a19d" filter="url(#bbburst-blur-1)"></use><use xlink:href="#bbburst-shape-10" width="17.092200066431676" opacity="0.4552161968393892" transform="matrix(0.9605883262769271,-0.27797494027428415,0.27797494027428415,0.9605883262769271,503.71323199554286,119.7309601171554)" fill="none" stroke="#ffa6d5" filter="url(#bbburst-blur-2)"></use><use xlink:href="#bbburst-shape-10" width="11.73049428452876" opacity="0.7435378543158037" transform="matrix(0.8572151959692875,-0.5149583554029743,0.5149583554029743,0.8572151959692875,219.64796110009488,-51.126759027303365)" fill="none" stroke="#ffa6d5" filter="url(#bbburst-blur-1)"></use><use xlink:href="#bbburst-shape-10" width="10.987679809798278" opacity="0.7605255933687387" transform="matrix(0.9682276824327312,-0.2500703000576885,0.2500703000576885,0.9682276824327312,247.3189383122441,-82.72886832324531)" fill="none" stroke="#00a19d" filter="url(#bbburst-blur-1)"></use><use xlink:href="#bbburst-shape-1" width="30.035269403146426" opacity="0.13819703201576394" transform="matrix(1.171411670696754,-0.4362278048857501,0.4362278048857501,1.171411670696754,-74.67929157135985,203.60175103363503)" fill="#ff5c58" filter="url(#bbburst-blur-3)"></use><use xlink:href="#bbburst-shape-1" width="20.92413124060266" opacity="0.11330791046264443" transform="matrix(1.2412284805902698,-0.14782374292234174,0.14782374292234174,1.2412284805902698,-41.97570528499768,-244.6126090704818)" fill="#ffa6d5" filter="url(#bbburst-blur-3)"></use><use xlink:href="#bbburst-shape-1" width="15.93626027455411" opacity="0.6835820022902847" transform="matrix(0.99787816450421,-0.06510889958914133,0.06510889958914133,0.99787816450421,399.2533228955918,139.8402629563683)" fill="#2c2891" filter="url(#bbburst-blur-1)"></use><use xlink:href="#bbburst-shape-4" width="15.511007489663417" opacity="0.7007941409437253" transform="matrix(0.8200434334655775,0.5723012906066061,-0.5723012906066061,0.8200434334655775,534.1678518181071,169.12721944751706)" fill="#00a19d" filter="url(#bbburst-blur-1)"></use><use xlink:href="#bbburst-shape-6" width="11.223950336401646" opacity="0.6748337745231721" transform="matrix(0.9899430271946363,-0.1414666141134347,0.1414666141134347,0.9899430271946363,193.55176501292468,-19.40530154605233)" fill="#ffbd9b" filter="url(#bbburst-blur-1)"></use><use xlink:href="#bbburst-shape-8" width="30.672065081405055" opacity="0.17707981626548497" transform="matrix(1.0212194503563867,0.720840366665047,-0.720840366665047,1.0212194503563867,702.3443786131015,349.5809710346902)" fill="none" stroke="#00a19d" filter="url(#bbburst-blur-3)"></use><use xlink:href="#bbburst-shape-1" width="10.59194365729452" opacity="0.7500277252947439" transform="matrix(0.9924262150394867,0.12284220651876321,-0.12284220651876321,0.9924262150394867,475.94867471495974,110.21180511830391)" fill="#2c2891" filter="url(#bbburst-blur-1)"></use><use xlink:href="#bbburst-shape-4" width="10.7942313126835" opacity="0.7322338524593885" transform="matrix(0.9861853511976995,-0.16564556463446325,0.16564556463446325,0.9861853511976995,212.76233836849696,-27.365437835418447)" fill="#ff5c58" filter="url(#bbburst-blur-1)"></use><use xlink:href="#bbburst-shape-6" width="10.348940559704737" opacity="0.7907979251002506" transform="matrix(0.9904144793603821,0.1381273292049888,-0.1381273292049888,0.9904144793603821,464.65208157390845,-89.89389868426304)" fill="#ffa6d5"></use><use xlink:href="#bbburst-shape-6" width="27.169264732378153" opacity="0.39671842269173774" transform="matrix(0.974706324176281,-0.22348955593217906,0.22348955593217906,0.974706324176281,376.3074266428818,-246.5911048839199)" fill="#00a19d" filter="url(#bbburst-blur-2)"></use><use xlink:href="#bbburst-shape-4" width="21.079479203280734" opacity="0.16845437918314532" transform="matrix(1.0608029628544018,-0.6612087975816129,0.6612087975816129,1.0608029628544018,497.0987608003233,15.52442769086747)" fill="#2c2891" filter="url(#bbburst-blur-3)"></use><use xlink:href="#bbburst-shape-8" width="5.340507058917488" opacity="0.9520443034684507" transform="matrix(0.8500442606046573,0.5267112634196097,-0.5267112634196097,0.8500442606046573,602.7326413338862,79.39443222280909)" fill="none" stroke="#ff5c58"></use><use xlink:href="#bbburst-shape-4" width="14.910104011968233" opacity="0.6751578252119185" transform="matrix(0.7847700211813298,0.6197870713842418,-0.6197870713842418,0.7847700211813298,726.9206026275799,200.5042384445086)" fill="#ffa6d5" filter="url(#bbburst-blur-1)"></use><use xlink:href="#bbburst-shape-6" width="16.54102942179037" opacity="0.6116445893023337" transform="matrix(0.9788459631058968,-0.20459858384477947,0.20459858384477947,0.9788459631058968,477.84784649989155,-38.733393068384316)" fill="#00a19d" filter="url(#bbburst-blur-1)"></use><use xlink:href="#bbburst-shape-4" width="5.515630625481392" opacity="0.9716876941642906" transform="matrix(0.9464708124599654,-0.3227894068295502,0.3227894068295502,0.9464708124599654,257.86831031207237,29.655655783881514)" fill="#2c2891"></use><use xlink:href="#bbburst-shape-10" width="24.544912220424237" opacity="0.30830794968078434" transform="matrix(1.23150140526801,-0.21425286187800793,0.21425286187800793,1.23150140526801,548.6721588089865,96.14705459539056)" fill="none" stroke="#ffa6d5" filter="url(#bbburst-blur-3)"></use><use xlink:href="#bbburst-shape-10" width="12.989046602281544" opacity="0.7205974578226816" transform="matrix(0.8371387660201223,-0.5469905725205024,0.5469905725205024,0.8371387660201223,292.6462656342149,115.03860681193328)" fill="none" stroke="#00a19d" filter="url(#bbburst-blur-1)"></use><use xlink:href="#bbburst-shape-4" width="6.818240259817839" opacity="0.7789496514758634" transform="matrix(0.8502825743144772,0.5263264612549379,-0.5263264612549379,0.8502825743144772,695.1091659601386,105.44726242829614)" fill="#ffbd9b"></use><use xlink:href="#bbburst-shape-4" width="29.79948917452314" opacity="0.18503447708158105" transform="matrix(1.196205639794134,0.362756209215923,-0.362756209215923,1.196205639794134,879.7717871183584,17.319645029360004)" fill="#ffa6d5" filter="url(#bbburst-blur-3)"></use><use xlink:href="#bbburst-shape-6" width="10.830810008686917" opacity="0.6698144146608978" transform="matrix(0.9664457152215009,0.25687093944236183,-0.25687093944236183,0.9664457152215009,624.5161299383594,89.15201255260075)" fill="#ffa6d5" filter="url(#bbburst-blur-1)"></use><use xlink:href="#bbburst-shape-4" width="7.840463381925929" opacity="0.8898871511538704" transform="matrix(0.9590455430127388,-0.28325191336935546,0.28325191336935546,0.9590455430127388,270.6941749067014,65.51237969234865)" fill="#2c2891"></use><use xlink:href="#bbburst-shape-6" width="22.43706116755114" opacity="0.5406609161971871" transform="matrix(0.7618731546708659,0.6477262509670755,-0.6477262509670755,0.7618731546708659,455.9345223102873,18.317934947154868)" fill="#ffa6d5" filter="url(#bbburst-blur-2)"></use><use xlink:href="#bbburst-shape-8" width="6.616060876117475" opacity="0.8385731754669654" transform="matrix(0.965959825421637,-0.25869212525973895,0.25869212525973895,0.965959825421637,361.1256833558914,-11.610872975448387)" fill="none" stroke="#ffa6d5"></use><use xlink:href="#bbburst-shape-4" width="10.907439902700306" opacity="0.7372280731574359" transform="matrix(0.9991075448600575,0.042238771332844025,-0.042238771332844025,0.9991075448600575,293.2028629935551,1.1077775814366646)" fill="#00a19d" filter="url(#bbburst-blur-1)"></use><use xlink:href="#bbburst-shape-6" width="21.913823778014773" opacity="0.25536830850518755" transform="matrix(1.0546468066921233,-0.6709844358359641,0.6709844358359641,1.0546468066921233,120.97437525774279,-349.589544041722)" fill="#00a19d" filter="url(#bbburst-blur-3)"></use><use xlink:href="#bbburst-shape-10" width="8.282818907180282" opacity="0.7966876956616964" transform="matrix(0.8227970217487005,0.5683353420309778,-0.5683353420309778,0.8227970217487005,653.4231176274868,155.13275638349916)" fill="none" stroke="#ffa6d5"></use><use xlink:href="#bbburst-shape-1" width="14.814184540095276" opacity="0.6044549924022398" transform="matrix(0.9907494603991399,0.13570374614878228,-0.13570374614878228,0.9907494603991399,414.66525933176047,-172.33069530370364)" fill="#ffa6d5" filter="url(#bbburst-blur-1)"></use><use xlink:href="#bbburst-shape-1" width="24.06231696346878" opacity="0.3798445157302476" transform="matrix(0.9775252447302463,-0.21081839558034807,0.21081839558034807,0.9775252447302463,437.17497430019256,256.7559855136145)" fill="#ffa6d5" filter="url(#bbburst-blur-2)"></use><use xlink:href="#bbburst-shape-10" width="33.361462541554815" opacity="0.25890827821822493" transform="matrix(0.9830250732107724,-0.7721150856180415,0.7721150856180415,0.9830250732107724,-88.58915845656,-271.07903338606064)" fill="none" stroke="#00a19d" filter="url(#bbburst-blur-3)"></use><use xlink:href="#bbburst-shape-4" width="13.717314090213701" opacity="0.6722605329044419" transform="matrix(0.8105753472794831,-0.5856343623650727,0.5856343623650727,0.8105753472794831,305.1859757243799,106.78762542589362)" fill="#2c2891" filter="url(#bbburst-blur-1)"></use><use xlink:href="#bbburst-shape-10" width="9.234179176348528" opacity="0.8289277047138723" transform="matrix(0.9960117881130924,-0.08922173468253229,0.08922173468253229,0.9960117881130924,426.82569112821466,39.71859892660194)" fill="none" stroke="#ff5c58"></use><use xlink:href="#bbburst-shape-1" width="9.428762499740415" opacity="0.715721694986218" transform="matrix(0.9969835046241045,0.07761373272455238,-0.07761373272455238,0.9969835046241045,554.2142717476831,4.615806593028765)" fill="#ff5c58" filter="url(#bbburst-blur-1)"></use><use xlink:href="#bbburst-shape-6" width="39.70809567935763" opacity="0.12008929103469179" transform="matrix(1.0520504241914068,0.6750480760350932,-0.6750480760350932,1.0520504241914068,927.2253220769098,-316.0873365967047)" fill="#00a19d" filter="url(#bbburst-blur-3)"></use><use xlink:href="#bbburst-shape-4" width="10.090911376245138" opacity="0.8425069164631751" transform="matrix(0.8302039695269768,-0.5574597465123833,0.5574597465123833,0.8302039695269768,125.10645992227123,18.345401863092377)" fill="#ffbd9b"></use><use xlink:href="#bbburst-shape-10" width="9.258818744555706" opacity="0.8438801920477891" transform="matrix(0.9643237175757204,0.26472583500848973,-0.26472583500848973,0.9643237175757204,520.3521974244173,80.70158192796441)" fill="none" stroke="#00a19d"></use><use xlink:href="#bbburst-shape-10" width="11.640361108640391" opacity="0.6744608905950158" transform="matrix(0.9840053044835705,0.17813916118640438,-0.17813916118640438,0.9840053044835705,339.2121536417511,-68.82954533547286)" fill="none" stroke="#2c2891" filter="url(#bbburst-blur-1)"></use><use xlink:href="#bbburst-shape-6" width="8.30924722745962" opacity="0.7360607564983217" transform="matrix(0.9895135745142504,0.1444399039463508,-0.1444399039463508,0.9895135745142504,426.065508558054,-111.9269262939834)" fill="#2c2891" filter="url(#bbburst-blur-1)"></use><use xlink:href="#bbburst-shape-10" width="8.524045391108958" opacity="0.8696501023211589" transform="matrix(0.8481765876551166,0.5297135793556007,-0.5297135793556007,0.8481765876551166,651.7282351640274,19.074750643616483)" fill="none" stroke="#ff5c58"></use><use xlink:href="#bbburst-shape-4" width="21.12215483841544" opacity="0.4666631102262826" transform="matrix(0.9981166982804682,0.061343757740268304,-0.061343757740268304,0.9981166982804682,177.51394124605827,-40.83191973304827)" fill="#ff5c58" filter="url(#bbburst-blur-2)"></use><use xlink:href="#bbburst-shape-6" width="21.684229619886757" opacity="0.24607323062396935" transform="matrix(1.2452933401466233,0.10837203046204522,-0.10837203046204522,1.2452933401466233,768.5614945735392,-118.65043973429346)" fill="#ffa6d5" filter="url(#bbburst-blur-3)"></use><use xlink:href="#bbburst-shape-6" width="15.614106130317433" opacity="0.5087932508650217" transform="matrix(0.8546653969487727,-0.5191792168975918,0.5191792168975918,0.8546653969487727,198.2256704751998,282.87260113728865)" fill="#2c2891" filter="url(#bbburst-blur-2)"></use><use xlink:href="#bbburst-shape-6" width="13.995606303934863" opacity="0.5844459070216645" transform="matrix(0.9087907004607079,-0.41725227711318247,0.41725227711318247,0.9087907004607079,239.41046531102387,-147.16586077593496)" fill="#00a19d" filter="url(#bbburst-blur-1)"></use><use xlink:href="#bbburst-shape-6" width="13.604809391425997" opacity="0.6146734727515104" transform="matrix(0.8712443817582058,0.49084949552257023,-0.49084949552257023,0.8712443817582058,643.2133756864641,-116.99902838527231)" fill="#00a19d" filter="url(#bbburst-blur-1)"></use><use xlink:href="#bbburst-shape-1" width="6.001120854976989" opacity="0.8974395772710465" transform="matrix(0.9808739087765276,0.19464422694099187,-0.19464422694099187,0.9808739087765276,436.632155821267,32.853831077901305)" fill="#2c2891"></use><use xlink:href="#bbburst-shape-6" width="24.497584221044317" opacity="0.457392558906218" transform="matrix(0.8425043587325483,-0.538689526087762,0.538689526087762,0.8425043587325483,333.25501970148633,-115.66953384406409)" fill="#ff5c58" filter="url(#bbburst-blur-2)"></use><use xlink:href="#bbburst-shape-1" width="29.890159250281215" opacity="0.25405382579785973" transform="matrix(0.9322693869039387,0.8326906930197758,-0.8326906930197758,0.9322693869039387,812.4409454272512,-307.75690057864836)" fill="#2c2891" filter="url(#bbburst-blur-3)"></use><use xlink:href="#bbburst-shape-8" width="6.223610003417883" opacity="0.9541463146057994" transform="matrix(0.8965565499183683,-0.44292928645380003,0.44292928645380003,0.8965565499183683,240.64007346141523,43.91265456916926)" fill="none" stroke="#2c2891"></use><use xlink:href="#bbburst-shape-6" width="18.54293345896236" opacity="0.4825535791079546" transform="matrix(0.8291701636084327,0.5589962788620019,-0.5589962788620019,0.8291701636084327,383.5189786559421,77.76384924201585)" fill="#2c2891" filter="url(#bbburst-blur-2)"></use><use xlink:href="#bbburst-shape-10" width="26.30517680033615" opacity="0.18086107200874801" transform="matrix(1.1055676196514557,-0.5832840117628928,0.5832840117628928,1.1055676196514557,346.8970410910633,-347.5201211098342)" fill="none" stroke="#ffa6d5" filter="url(#bbburst-blur-3)"></use><use xlink:href="#bbburst-shape-1" width="8.022655055143131" opacity="0.8419697037309863" transform="matrix(0.978653851711901,0.20551554327948154,-0.20551554327948154,0.978653851711901,407.23367241605547,10.85425666505563)" fill="#00a19d"></use><use xlink:href="#bbburst-shape-6" width="15.810135288881776" opacity="0.6362710410496417" transform="matrix(0.9698270616572122,0.243793909844643,-0.243793909844643,0.9698270616572122,643.5643596480343,66.3800085578082)" fill="#ff5c58" filter="url(#bbburst-blur-1)"></use><use xlink:href="#bbburst-shape-1" width="13.350726596688439" opacity="0.6216933749462952" transform="matrix(0.9993399992636394,-0.03632582926443967,0.03632582926443967,0.9993399992636394,223.62171514653699,70.52991856629637)" fill="#2c2891" filter="url(#bbburst-blur-1)"></use><use xlink:href="#bbburst-shape-10" width="11.324498759995663" opacity="0.7183150357387316" transform="matrix(0.9499690367598328,-0.3123440878223813,0.3123440878223813,0.9499690367598328,326.778279964263,134.952616667727)" fill="none" stroke="#ffa6d5" filter="url(#bbburst-blur-1)"></use><use xlink:href="#bbburst-shape-6" width="5.6980224519966125" opacity="0.9016145071888798" transform="matrix(0.8598880408888209,-0.5104826707503257,0.5104826707503257,0.8598880408888209,150.2002501851455,67.37965886205859)" fill="#ffa6d5"></use><use xlink:href="#bbburst-shape-6" width="20.777516655438745" opacity="0.3775735502664812" transform="matrix(0.9976489756303896,0.06853117118242205,-0.06853117118242205,0.9976489756303896,356.45018193651117,273.68684047972835)" fill="#2c2891" filter="url(#bbburst-blur-2)"></use><use xlink:href="#bbburst-shape-1" width="26.297637650090877" opacity="0.10178459950202434" transform="matrix(1.5937348187229792,0.7228480667401919,-0.7228480667401919,1.5937348187229792,498.816195026398,120.06798249463918)" fill="#ffa6d5" filter="url(#bbburst-blur-4)"></use><use xlink:href="#bbburst-shape-8" width="20.146455588875803" opacity="0.5163213843306209" transform="matrix(0.717405678827654,-0.6966556480685654,0.6966556480685654,0.717405678827654,177.69477035045622,-88.10564320508715)" fill="none" stroke="#00a19d" filter="url(#bbburst-blur-2)"></use><use xlink:href="#bbburst-shape-4" width="20.81383827446965" opacity="0.5520511498310517" transform="matrix(0.8243969905016464,-0.5660120158193008,0.5660120158193008,0.8243969905016464,264.4283896016486,-99.21677599926892)" fill="#00a19d" filter="url(#bbburst-blur-2)"></use><use xlink:href="#bbburst-shape-4" width="14.88280043082425" opacity="0.6288427977278419" transform="matrix(0.8777625904469958,-0.4790958513823509,0.4790958513823509,0.8777625904469958,268.6506383876872,205.54638409992066)" fill="#2c2891" filter="url(#bbburst-blur-1)"></use><use xlink:href="#bbburst-shape-6" width="10.40226212654893" opacity="0.7646148438246507" transform="matrix(0.8947820151612471,-0.44650324225472054,0.44650324225472054,0.8947820151612471,278.2901103446817,130.61828850922916)" fill="#00a19d" filter="url(#bbburst-blur-1)"></use><use xlink:href="#bbburst-shape-10" width="39.20568040137812" opacity="-0.10856125151949492" transform="matrix(1.5577995367257425,-0.7973459747042446,0.7973459747042446,1.5577995367257425,402.3031556179085,-561.1921393895907)" fill="none" stroke="#ffa6d5" filter="url(#bbburst-blur-4)"></use><use xlink:href="#bbburst-shape-10" width="12.263983015768654" opacity="0.7560252824275308" transform="matrix(0.9905035981233139,-0.13748680702077795,0.13748680702077795,0.9905035981233139,421.0852073986393,-68.18907489125644)" fill="none" stroke="#ff5c58" filter="url(#bbburst-blur-1)"></use><use xlink:href="#bbburst-shape-10" width="27.12770377335706" opacity="0.452297603521308" transform="matrix(0.8080497417729312,-0.5891142629581287,0.5891142629581287,0.8080497417729312,-32.21060130822494,246.93255882440252)" fill="none" stroke="#ff5c58" filter="url(#bbburst-blur-2)"></use><use xlink:href="#bbburst-shape-10" width="6.587190370253123" opacity="0.9342627500788894" transform="matrix(0.9969916995932729,0.07750839272051153,-0.07750839272051153,0.9969916995932729,412.4987715277215,-24.417388773587675)" fill="none" stroke="#00a19d"></use><use xlink:href="#bbburst-shape-4" width="15.906120387454402" opacity="0.6962105886528289" transform="matrix(0.7226814600544147,-0.6911812405538937,0.6911812405538937,0.7226814600544147,-12.763305424940484,156.98321936975424)" fill="#ffa6d5" filter="url(#bbburst-blur-1)"></use><use xlink:href="#bbburst-shape-1" width="6.497994856974248" opacity="0.8536082614100664" transform="matrix(0.88031743914183,0.474385082335828,-0.474385082335828,0.88031743914183,556.6359722565835,104.8573580373324)" fill="#ffa6d5"></use><use xlink:href="#bbburst-shape-6" width="14.646038945042422" opacity="0.44021140233650835" transform="matrix(0.729280253916277,-0.6842151059775065,0.6842151059775065,0.729280253916277,94.54007991876426,-137.21562427995786)" fill="#ffbd9b" filter="url(#bbburst-blur-2)"></use><use xlink:href="#bbburst-shape-4" width="13.568002678851437" opacity="0.7123688534610805" transform="matrix(0.9997830380957622,-0.020829708015421482,0.020829708015421482,0.9997830380957622,494.826327221548,-68.06955354471881)" fill="#00a19d" filter="url(#bbburst-blur-1)"></use><use xlink:href="#bbburst-shape-4" width="5.652337892741288" opacity="0.9198533369169544" transform="matrix(0.9880960843077006,0.15383799327795938,-0.15383799327795938,0.9880960843077006,440.57940384754215,35.49083785686531)" fill="#ffbd9b"></use><use xlink:href="#bbburst-shape-10" width="14.416186576008274" opacity="0.629096011782555" transform="matrix(0.9842106461975407,0.17700114098903255,-0.17700114098903255,0.9842106461975407,424.7603420703851,167.33931667576695)" fill="none" stroke="#2c2891" filter="url(#bbburst-blur-1)"></use><use xlink:href="#bbburst-shape-1" width="20.437762152765913" opacity="0.5090069983369344" transform="matrix(0.9873890489200382,-0.15831255816511353,0.15831255816511353,0.9873890489200382,115.51664727554046,72.00220568751143)" fill="#ffa6d5" filter="url(#bbburst-blur-2)"></use><use xlink:href="#bbburst-shape-1" width="11.879582485339803" opacity="0.714214516363316" transform="matrix(0.9309249784942607,-0.3652104659172027,0.3652104659172027,0.9309249784942607,151.0077278303128,-54.18156094991002)" fill="#2c2891" filter="url(#bbburst-blur-1)"></use><use xlink:href="#bbburst-shape-8" width="22.812813612232574" opacity="0.1597033644965058" transform="matrix(0.9803075924876408,0.7755623921459096,-0.7755623921459096,0.9803075924876408,645.1100282908967,-375.23689451775556)" fill="none" stroke="#ffa6d5" filter="url(#bbburst-blur-3)"></use><use xlink:href="#bbburst-shape-6" width="5.971987324395801" opacity="0.902877892891252" transform="matrix(0.8330230033551158,-0.5532383535884174,0.5532383535884174,0.8330230033551158,217.10909794301878,83.8695335132461)" fill="#ffa6d5"></use><use xlink:href="#bbburst-shape-8" width="8.79720227325546" opacity="0.8666785310871656" transform="matrix(0.7537625792069677,0.6571468437018166,-0.6571468437018166,0.7537625792069677,660.7911983984748,155.58612228513778)" fill="none" stroke="#2c2891"></use><use xlink:href="#bbburst-shape-4" width="12.087213726503776" opacity="0.6749014406997931" transform="matrix(0.7957655019280359,0.6056048760877188,-0.6056048760877188,0.7957655019280359,639.0695071463801,224.32760444446677)" fill="#ffa6d5" filter="url(#bbburst-blur-1)"></use><use xlink:href="#bbburst-shape-4" width="27.9421245735206" opacity="0.20494568592080575" transform="matrix(1.137798445110781,-0.5176047703639225,0.5176047703639225,1.137798445110781,383.4423436201622,244.39952254218133)" fill="#ff5c58" filter="url(#bbburst-blur-3)"></use><use xlink:href="#bbburst-shape-1" width="5.842965361056666" opacity="0.9217663281940112" transform="matrix(0.7718484064489018,0.6358066038209188,-0.6358066038209188,0.7718484064489018,670.3739664872289,119.47734140091649)" fill="#ffa6d5"></use><use xlink:href="#bbburst-shape-6" width="9.56476242628961" opacity="0.8615771023247707" transform="matrix(0.9989081452430787,-0.046717420380756484,0.046717420380756484,0.9989081452430787,319.34908892946294,25.353461573399386)" fill="#ffa6d5"></use><use xlink:href="#bbburst-shape-6" width="36.604501298049975" opacity="0.18693112646590726" transform="matrix(1.0649246165165314,0.6545498920152065,-0.6545498920152065,1.0649246165165314,281.9061169262091,-100.910430050424)" fill="#ffa6d5" filter="url(#bbburst-blur-3)"></use><use xlink:href="#bbburst-shape-10" width="24.44332480890069" opacity="0.32550069645723256" transform="matrix(0.9328261550408794,-0.8320669230726873,0.8320669230726873,0.9328261550408794,355.8914268204539,82.38078385764749)" fill="none" stroke="#ffa6d5" filter="url(#bbburst-blur-3)"></use><use xlink:href="#bbburst-shape-10" width="7.720801040420459" opacity="0.7908632505336413" transform="matrix(0.9930486794448918,-0.11770437652337482,0.11770437652337482,0.9930486794448918,325.37161307839443,-87.84017405799602)" fill="none" stroke="#ffa6d5"></use><use xlink:href="#bbburst-shape-10" width="9.846631100669919" opacity="0.7489025206484544" transform="matrix(0.8251832038026072,-0.5648651875997182,0.5648651875997182,0.8251832038026072,73.22423752460628,131.04940824935875)" fill="none" stroke="#ff5c58" filter="url(#bbburst-blur-1)"></use><use xlink:href="#bbburst-shape-6" width="5.484221094794577" opacity="0.9629236511614561" transform="matrix(0.9922475365402604,-0.12427721524794659,0.12427721524794659,0.9922475365402604,332.0145245975807,-2.5954553396488222)" fill="#ff5c58"></use><use xlink:href="#bbburst-shape-4" width="8.007804245280488" opacity="0.8393467921040638" transform="matrix(0.9310122026179735,-0.36498805264889084,0.36498805264889084,0.9310122026179735,286.08024616135435,-33.743876701895886)" fill="#ffa6d5"></use><use xlink:href="#bbburst-shape-4" width="31.57473633245932" opacity="0.17587727072611026" transform="matrix(1.2461694615038361,-0.09778380855355961,0.09778380855355961,1.2461694615038361,-29.212299625163396,-79.08832308389054)" fill="#2c2891" filter="url(#bbburst-blur-3)"></use><use xlink:href="#bbburst-shape-10" width="21.95830312061615" opacity="0.48782706103722806" transform="matrix(0.8332313501712699,0.552924513013994,-0.552924513013994,0.8332313501712699,633.0057818856449,-168.8837514357468)" fill="none" stroke="#ffa6d5" filter="url(#bbburst-blur-2)"></use><use xlink:href="#bbburst-shape-8" width="15.04639255554815" opacity="0.7433796487557952" transform="matrix(0.8429048319461818,-0.5380626769083496,0.5380626769083496,0.8429048319461818,125.17567491534746,169.3507986158931)" fill="none" stroke="#ffa6d5" filter="url(#bbburst-blur-1)"></use><use xlink:href="#bbburst-shape-10" width="23.41053781681631" opacity="0.23723578146772217" transform="matrix(1.2443932916525056,-0.11825961140745445,0.11825961140745445,1.2443932916525056,3.0783488931683394,-21.830339306953647)" fill="none" stroke="#ffbd9b" filter="url(#bbburst-blur-3)"></use><use xlink:href="#bbburst-shape-6" width="17.001973539903304" opacity="0.4997617640412324" transform="matrix(0.8949778048459519,0.44611066881786327,-0.44611066881786327,0.8949778048459519,529.2786347009244,259.4546295348956)" fill="#ffbd9b" filter="url(#bbburst-blur-2)"></use><use xlink:href="#bbburst-shape-4" width="23.15062839508962" opacity="0.11398331913848614" transform="matrix(1.0437865037967713,-0.6877570315828931,0.6877570315828931,1.0437865037967713,261.64454615379526,-379.42588763523327)" fill="#2c2891" filter="url(#bbburst-blur-3)"></use><use xlink:href="#bbburst-shape-8" width="7.3921820262193005" opacity="0.9374781008090487" transform="matrix(0.7567241219616377,0.6537343521962024,-0.6537343521962024,0.7567241219616377,634.7896466283227,109.72706322857545)" fill="none" stroke="#00a19d"></use><use xlink:href="#bbburst-shape-1" width="21.792086683412435" opacity="0.520819661679909" transform="matrix(0.8920163187213019,0.45200319372200987,-0.45200319372200987,0.8920163187213019,769.8520758111772,-45.26570338259313)" fill="#ffa6d5" filter="url(#bbburst-blur-2)"></use><use xlink:href="#bbburst-shape-4" width="10.894287788914257" opacity="0.7858344724725643" transform="matrix(0.9494906489303211,-0.31379532755265455,0.31379532755265455,0.9494906489303211,195.8454121030201,-40.45196527157901)" fill="#ff5c58"></use><use xlink:href="#bbburst-shape-6" width="8.550015956449938" opacity="0.8599865675913307" transform="matrix(0.849791171142806,0.5271194982617682,-0.5271194982617682,0.849791171142806,639.0763702379427,112.18646884032205)" fill="#00a19d"></use><use xlink:href="#bbburst-shape-8" width="19.950273021921305" opacity="0.5889207975361784" transform="matrix(0.8340365560313526,-0.5517091835408945,0.5517091835408945,0.8340365560313526,277.60609993886794,223.06455266666916)" fill="none" stroke="#2c2891" filter="url(#bbburst-blur-1)"></use><use xlink:href="#bbburst-shape-10" width="7.296550234677967" opacity="0.8134983834230228" transform="matrix(0.943853145213687,-0.3303653133581531,0.3303653133581531,0.943853145213687,308.91935298044086,94.8151423644104)" fill="none" stroke="#00a19d"></use><use xlink:href="#bbburst-shape-8" width="36.56532869759729" opacity="0.0066210595269380335" transform="matrix(1.7148034286664198,-0.3492122578517125,0.3492122578517125,1.7148034286664198,-38.088413102281095,78.9466064810074)" fill="none" stroke="#ff5c58" filter="url(#bbburst-blur-4)"></use><use xlink:href="#bbburst-shape-6" width="8.158431741571357" opacity="0.8839194777961731" transform="matrix(0.9799493470915509,-0.1992467744653425,0.1992467744653425,0.9799493470915509,283.5646976374272,49.53656022267114)" fill="#ffa6d5"></use><use xlink:href="#bbburst-shape-6" width="22.521344510247026" opacity="0.46947128988211595" transform="matrix(0.779813135778381,-0.6260123587178518,0.6260123587178518,0.779813135778381,287.34630910690316,283.60258526699226)" fill="#ffa6d5" filter="url(#bbburst-blur-2)"></use><use xlink:href="#bbburst-shape-4" width="7.8624440228029036" opacity="0.8714515499080362" transform="matrix(0.9019627351433379,0.4318138770497641,-0.4318138770497641,0.9019627351433379,564.342395079651,-20.12066355659084)" fill="#00a19d"></use><use xlink:href="#bbburst-shape-10" width="28.058258433435867" opacity="0.37190827577301067" transform="matrix(0.9798498789484913,0.19973536172803014,-0.19973536172803014,0.9798498789484913,686.020491657737,-172.34285517240855)" fill="none" stroke="#ffbd9b" filter="url(#bbburst-blur-2)"></use><use xlink:href="#bbburst-shape-10" width="5.687368469629167" opacity="0.9307631378493493" transform="matrix(0.9271188252267956,0.3747675064757969,-0.3747675064757969,0.9271188252267956,560.9061681181643,0.07240637498733804)" fill="none" stroke="#00a19d"></use><use xlink:href="#bbburst-shape-6" width="23.8802525301644" opacity="0.45139816666995713" transform="matrix(0.9794181972472646,0.20184150936048384,-0.20184150936048384,0.9794181972472646,534.2371664324011,243.92969968784388)" fill="#ff5c58" filter="url(#bbburst-blur-2)"></use><use xlink:href="#bbburst-shape-4" width="15.898736396463255" opacity="0.5196716313907275" transform="matrix(0.7821442613976543,0.6230973875428446,-0.6230973875428446,0.7821442613976543,492.59289053365103,-73.02151200547368)" fill="#00a19d" filter="url(#bbburst-blur-2)"></use><use xlink:href="#bbburst-shape-8" width="22.34129175927277" opacity="0.44295754952252364" transform="matrix(0.9848543618326049,0.17338363815335192,-0.17338363815335192,0.9848543618326049,579.7313217055046,-215.20036505146754)" fill="none" stroke="#00a19d" filter="url(#bbburst-blur-2)"></use><use xlink:href="#bbburst-shape-4" width="26.278485265204672" opacity="0.16229582880098414" transform="matrix(1.0232484320521138,0.7179572733128976,-0.7179572733128976,1.0232484320521138,723.7010644735955,-392.34729348580726)" fill="#ffbd9b" filter="url(#bbburst-blur-3)"></use><use xlink:href="#bbburst-shape-4" width="26.00016475032607" opacity="0.2920250367095366" transform="matrix(0.9876284699834752,-0.766217988093532,0.766217988093532,0.9876284699834752,-133.82869974026156,-220.6086993304204)" fill="#ffa6d5" filter="url(#bbburst-blur-3)"></use><use xlink:href="#bbburst-shape-6" width="13.927788176607693" opacity="0.5248322064712234" transform="matrix(0.9917991987031267,0.12780590538717623,-0.12780590538717623,0.9917991987031267,407.3123042633205,-208.22648661725688)" fill="#ffbd9b" filter="url(#bbburst-blur-2)"></use><use xlink:href="#bbburst-shape-1" width="28.427160508916227" opacity="0.3404875168175807" transform="matrix(0.8852989912559732,-0.4650222533182215,0.4650222533182215,0.8852989912559732,19.0203254622069,286.632118992735)" fill="#ffa6d5" filter="url(#bbburst-blur-2)"></use><use xlink:href="#bbburst-shape-8" width="15.350390053988235" opacity="0.6350693463121366" transform="matrix(0.7492914226327081,0.6622404125157664,-0.6622404125157664,0.7492914226327081,748.3767344576627,-42.66000106680241)" fill="none" stroke="#ffa6d5" filter="url(#bbburst-blur-1)"></use><use xlink:href="#bbburst-shape-8" width="5.414265487268647" opacity="0.9586870977856503" transform="matrix(0.8859594193566696,-0.4637627704475565,0.4637627704475565,0.8859594193566696,226.22352130375012,34.78680214405688)" fill="none" stroke="#ffa6d5"></use><use xlink:href="#bbburst-shape-4" width="10.722668612450843" opacity="0.6944865738609101" transform="matrix(0.967899644217256,0.25133698240431923,-0.25133698240431923,0.967899644217256,551.7734223311683,-113.86402259018672)" fill="#ffbd9b" filter="url(#bbburst-blur-1)"></use><use xlink:href="#bbburst-shape-1" width="15.042977387956917" opacity="0.6682534848463904" transform="matrix(0.841918906821628,-0.5396040718307035,0.5396040718307035,0.841918906821628,28.8001341956097,75.9386139885022)" fill="#ffbd9b" filter="url(#bbburst-blur-1)"></use><use xlink:href="#bbburst-shape-6" width="25.99229754296313" opacity="0.2745346223467816" transform="matrix(1.238898082522237,0.16622737777732016,-0.16622737777732016,1.238898082522237,759.9090035700767,-201.51580536604916)" fill="#00a19d" filter="url(#bbburst-blur-3)"></use><use xlink:href="#bbburst-shape-10" width="14.446485077789864" opacity="0.5501879776437226" transform="matrix(0.8318432700848736,0.5550106071189127,-0.5550106071189127,0.8318432700848736,807.4541138983859,128.94730045450166)" fill="none" stroke="#ffa6d5" filter="url(#bbburst-blur-2)"></use><use xlink:href="#bbburst-shape-10" width="12.670084300734814" opacity="0.7262085200205455" transform="matrix(0.8914932303228913,0.45303401670123666,-0.45303401670123666,0.8914932303228913,499.8748181455583,-56.68154148249488)" fill="none" stroke="#00a19d" filter="url(#bbburst-blur-1)"></use><use xlink:href="#bbburst-shape-1" width="16.444037481522347" opacity="0.5413525665032962" transform="matrix(0.9157059299554038,0.4018490386258365,-0.4018490386258365,0.9157059299554038,703.2475310694708,172.15026885924442)" fill="#ffbd9b" filter="url(#bbburst-blur-2)"></use><use xlink:href="#bbburst-shape-4" width="13.24307368233915" opacity="0.6936820687068876" transform="matrix(0.9162814997370194,0.40053490889019716,-0.40053490889019716,0.9162814997370194,493.1128157204245,-92.75051412100458)" fill="#2c2891" filter="url(#bbburst-blur-1)"></use><use xlink:href="#bbburst-shape-1" width="5.607169251797772" opacity="0.8635927935047433" transform="matrix(0.9977935717734396,-0.06639268128040725,0.06639268128040725,0.9977935717734396,428.8349687959833,20.61938277244741)" fill="#ffa6d5"></use><use xlink:href="#bbburst-shape-6" width="11.896414477023974" opacity="0.7056614784775365" transform="matrix(0.9743580787447779,0.22500296527998315,-0.22500296527998315,0.9743580787447779,565.6707203851186,-95.51821285369175)" fill="#2c2891" filter="url(#bbburst-blur-1)"></use><use xlink:href="#bbburst-shape-10" width="10.481177688389284" opacity="0.7926405057322857" transform="matrix(0.9006691149971063,0.43450563320897134,-0.43450563320897134,0.9006691149971063,513.1275367074379,-37.21841791657869)" fill="none" stroke="#ffa6d5"></use><use xlink:href="#bbburst-shape-8" width="31.070523174687796" opacity="0.4160201062637623" transform="matrix(0.8861972056479259,0.4633082264560038,-0.4633082264560038,0.8861972056479259,333.9892468759647,-74.02027123897739)" fill="none" stroke="#ffa6d5" filter="url(#bbburst-blur-2)"></use><use xlink:href="#bbburst-shape-4" width="17.959821138698484" opacity="0.4484937362351119" transform="matrix(0.8427629579491476,-0.5382848657623613,0.5382848657623613,0.8427629579491476,420.44296123527613,116.62500252131065)" fill="#ffa6d5" filter="url(#bbburst-blur-2)"></use><use xlink:href="#bbburst-shape-4" width="32.954742831233474" opacity="0.119475983853227" transform="matrix(1.074988048307589,-0.6378876829002428,0.6378876829002428,1.074988048307589,408.008438729559,260.0506612250183)" fill="#00a19d" filter="url(#bbburst-blur-3)"></use><use xlink:href="#bbburst-shape-1" width="9.742529501913863" opacity="0.783516492186803" transform="matrix(0.9147293517098926,0.404067089875431,-0.404067089875431,0.9147293517098926,535.5059851661442,127.13055205705695)" fill="#2c2891"></use><use xlink:href="#bbburst-shape-4" width="14.365277851055259" opacity="0.6360188709823562" transform="matrix(0.9800931749866788,-0.19853807782017896,0.19853807782017896,0.9800931749866788,477.31144490878546,6.387491753177926)" fill="#00a19d" filter="url(#bbburst-blur-1)"></use><use xlink:href="#bbburst-shape-6" width="41.007871954228065" opacity="0.03648204356038054" transform="matrix(1.5740129358349435,-0.7648419953325404,0.7648419953325404,1.5740129358349435,-299.47096552562186,25.83761022339013)" fill="#2c2891" filter="url(#bbburst-blur-4)"></use><use xlink:href="#bbburst-shape-1" width="12.17635715286999" opacity="0.6781127339624375" transform="matrix(0.9992696998406706,-0.03821082281678998,0.03821082281678998,0.9992696998406706,405.38575167354384,-141.81678060600552)" fill="#2c2891" filter="url(#bbburst-blur-1)"></use><use xlink:href="#bbburst-shape-6" width="7.546990506482441" opacity="0.8341601259994689" transform="matrix(0.9713548716431702,-0.23763356946164038,0.23763356946164038,0.9713548716431702,316.7512996750644,-60.65203836854124)" fill="#ff5c58"></use><use xlink:href="#bbburst-shape-10" width="10.530961909838766" opacity="0.7562641471788201" transform="matrix(0.9785751989225762,0.2058897278973397,-0.2058897278973397,0.9785751989225762,380.4498696149849,-44.174074929928224)" fill="none" stroke="#2c2891" filter="url(#bbburst-blur-1)"></use><use xlink:href="#bbburst-shape-4" width="8.608663057203103" opacity="0.8043993513517529" transform="matrix(0.7140045397178589,-0.7001410695440515,0.7001410695440515,0.7140045397178589,203.13993767507327,99.9229294806778)" fill="#2c2891"></use><use xlink:href="#bbburst-shape-8" width="15.875428765506694" opacity="0.5519745592116825" transform="matrix(0.7332082606446545,0.6800041518420608,-0.6800041518420608,0.7332082606446545,865.6806898214837,72.2102872534224)" fill="none" stroke="#ff5c58" filter="url(#bbburst-blur-2)"></use><use xlink:href="#bbburst-shape-4" width="31.985951517301846" opacity="0.3056365984418845" transform="matrix(1.0540773715346898,-0.6718786310179239,0.6718786310179239,1.0540773715346898,-128.6689449697581,185.47643145013046)" fill="#2c2891" filter="url(#bbburst-blur-3)"></use><use xlink:href="#bbburst-shape-8" width="17.595142634219854" opacity="0.6170628998619083" transform="matrix(0.7828203886802876,-0.6222477312666101,0.6222477312666101,0.7828203886802876,46.41316499907853,234.22549305714278)" fill="none" stroke="#ffbd9b" filter="url(#bbburst-blur-1)"></use><use xlink:href="#bbburst-shape-6" width="7.071156735215116" opacity="0.8288206863296579" transform="matrix(0.8685373837493849,0.4956236606839646,-0.4956236606839646,0.8685373837493849,658.3130048513325,6.699138047801966)" fill="#00a19d"></use><use xlink:href="#bbburst-shape-10" width="7.129157950762826" opacity="0.9031779271188941" transform="matrix(0.8398314678331615,-0.5428472212669025,0.5428472212669025,0.8398314678331615,187.01236128260166,23.022329186593197)" fill="none" stroke="#00a19d"></use><use xlink:href="#bbburst-shape-10" width="13.460943591975072" opacity="0.6640886715758267" transform="matrix(0.913861352287085,0.40602638928525364,-0.40602638928525364,0.913861352287085,668.6535230326706,-69.35665150389042)" fill="none" stroke="#2c2891" filter="url(#bbburst-blur-1)"></use><use xlink:href="#bbburst-shape-4" width="13.149805879852263" opacity="0.6361989338137944" transform="matrix(0.9978030172383539,0.06625057577136384,-0.06625057577136384,0.9978030172383539,540.8506407829316,110.82488446923793)" fill="#2c2891" filter="url(#bbburst-blur-1)"></use><use xlink:href="#bbburst-shape-8" width="7.423315451240834" opacity="0.7975610770918866" transform="matrix(0.9974698563330825,0.07109068649872323,-0.07109068649872323,0.9974698563330825,511.52565976934704,28.424285288475517)" fill="none" stroke="#2c2891"></use><use xlink:href="#bbburst-shape-6" width="20.891931304910585" opacity="0.09316070113828867" transform="matrix(1.3163749809092538,1.1531075013354835,-1.1531075013354835,1.3163749809092538,1218.3200756000806,31.73966931500047)" fill="#ff5c58" filter="url(#bbburst-blur-4)"></use><use xlink:href="#bbburst-shape-4" width="26.28006360493574" opacity="0.3963998780843434" transform="matrix(0.9678168565748119,0.251655582353442,-0.251655582353442,0.9678168565748119,496.38168046319606,281.0783904875021)" fill="#2c2891" filter="url(#bbburst-blur-2)"></use><use xlink:href="#bbburst-shape-4" width="27.396558512536565" opacity="0.27300214209400475" transform="matrix(1.0429736205762195,-0.6889891340087535,0.6889891340087535,1.0429736205762195,-10.506166051994967,296.3671308301713)" fill="#00a19d" filter="url(#bbburst-blur-3)"></use><use xlink:href="#bbburst-shape-6" width="40.263027260376084" opacity="-0.1039875645706192" transform="matrix(1.584616160999195,-0.7426248193402732,0.7426248193402732,1.584616160999195,-285.27404133842845,127.28074784360854)" fill="#ff5c58" filter="url(#bbburst-blur-4)"></use><use xlink:href="#bbburst-shape-10" width="13.71797751769094" opacity="0.6878429597242159" transform="matrix(0.8137186001385831,0.581259012651421,-0.581259012651421,0.8137186001385831,765.3650872110194,46.743235596007594)" fill="none" stroke="#ffa6d5" filter="url(#bbburst-blur-1)"></use><use xlink:href="#bbburst-shape-4" width="24.987639469087984" opacity="0.11136367767001121" transform="matrix(1.219840912455067,-0.2729251697824692,0.2729251697824692,1.219840912455067,639.6524974043047,-249.94272213455082)" fill="#2c2891" filter="url(#bbburst-blur-3)"></use><use xlink:href="#bbburst-shape-10" width="25.78241821639083" opacity="0.18536581205487979" transform="matrix(0.9542667756426364,-0.8073877141154716,0.8073877141154716,0.9542667756426364,375.30223402474974,223.47821544407748)" fill="none" stroke="#2c2891" filter="url(#bbburst-blur-3)"></use><use xlink:href="#bbburst-shape-6" width="24.59379495536109" opacity="0.37720974352839154" transform="matrix(0.9280056127367738,0.37256621254354894,-0.37256621254354894,0.9280056127367738,265.78618941419626,92.42530032713557)" fill="#ffa6d5" filter="url(#bbburst-blur-2)"></use><use xlink:href="#bbburst-shape-4" width="17.95752053024775" opacity="0.5493057175335809" transform="matrix(0.8086057311115901,-0.5883508915719351,0.5883508915719351,0.8086057311115901,79.024835557676,268.90652359127387)" fill="#00a19d" filter="url(#bbburst-blur-2)"></use><use xlink:href="#bbburst-shape-6" width="7.399002541118987" opacity="0.7783486706577908" transform="matrix(0.9648730949981994,0.26271640707918426,-0.26271640707918426,0.9648730949981994,497.03451954779734,-86.56340943705493)" fill="#ffa6d5"></use><use xlink:href="#bbburst-shape-6" width="16.927387490294638" opacity="0.5448807526112176" transform="matrix(0.9535695498106901,0.3011728966454947,-0.3011728966454947,0.9535695498106901,399.7418671283916,-155.01191439234447)" fill="#ffa6d5" filter="url(#bbburst-blur-2)"></use><use xlink:href="#bbburst-shape-8" width="28.775612700942652" opacity="-0.10216818707198749" transform="matrix(1.7436708800858598,0.1487005781448201,-0.1487005781448201,1.7436708800858598,778.4915734657767,57.5865247917983)" fill="none" stroke="#ff5c58" filter="url(#bbburst-blur-4)"></use><use xlink:href="#bbburst-shape-10" width="8.343921544097967" opacity="0.8409104056094658" transform="matrix(0.9999237468564717,0.012349108166779936,-0.012349108166779936,0.9999237468564717,349.77896741722645,50.23126438671676)" fill="none" stroke="#ffa6d5"></use><use xlink:href="#bbburst-shape-8" width="20.830882907877076" opacity="0.4319968012803884" transform="matrix(0.8957253789975398,-0.4446077433195623,0.4446077433195623,0.8957253789975398,459.6951168549128,-19.90500730233049)" fill="none" stroke="#2c2891" filter="url(#bbburst-blur-2)"></use><use xlink:href="#bbburst-shape-4" width="34.03321686796705" opacity="0.000310322399349805" transform="matrix(1.687005021000914,0.46531071244675437,-0.46531071244675437,1.687005021000914,920.3908358439277,-16.935009670993963)" fill="#00a19d" filter="url(#bbburst-blur-4)"></use><use xlink:href="#bbburst-shape-6" width="6.283185075024316" opacity="0.990615880473844" transform="matrix(0.940396280511378,0.3400806310279454,-0.3400806310279454,0.940396280511378,533.1303621440926,18.55062340676443)" fill="#ff5c58"></use><use xlink:href="#bbburst-shape-1" width="7.457793825329905" opacity="0.8220449306017326" transform="matrix(0.9991684648878498,0.040772279475860665,-0.040772279475860665,0.9991684648878498,379.6520327065681,-72.80530150553682)" fill="#ffbd9b"></use><use xlink:href="#bbburst-shape-4" width="15.744963234822809" opacity="0.504369958167748" transform="matrix(0.990086369137253,-0.14045989338103282,0.14045989338103282,0.990086369137253,251.0642471752987,-201.132618168596)" fill="#ffa6d5" filter="url(#bbburst-blur-2)"></use><use xlink:href="#bbburst-shape-10" width="14.896620288797406" opacity="0.6107773725594241" transform="matrix(0.8737460681641197,-0.48638236847951366,0.48638236847951366,0.8737460681641197,129.47632271299767,-106.66284679905195)" fill="none" stroke="#2c2891" filter="url(#bbburst-blur-1)"></use><use xlink:href="#bbburst-shape-4" width="9.609236073212474" opacity="0.8161283102629017" transform="matrix(0.9003517498890491,0.43516287349879385,-0.43516287349879385,0.9003517498890491,490.4437410903421,61.42165818130661)" fill="#2c2891"></use><use xlink:href="#bbburst-shape-1" width="6.111997661793304" opacity="0.8812945857446907" transform="matrix(0.9652161977099307,0.26145303914543416,-0.26145303914543416,0.9652161977099307,448.2322096897502,11.653599469782762)" fill="#00a19d"></use><use xlink:href="#bbburst-shape-6" width="18.42934675380803" opacity="0.5189940584329076" transform="matrix(0.7622407375149342,-0.6472936413040755,0.6472936413040755,0.7622407375149342,225.32073288134927,297.3413180282038)" fill="#2c2891" filter="url(#bbburst-blur-2)"></use><use xlink:href="#bbburst-shape-4" width="27.76948493903099" opacity="0.2278420609080385" transform="matrix(1.1784144115984094,-0.41694061272221333,0.41694061272221333,1.1784144115984094,-89.79556616266477,97.82691920834827)" fill="#00a19d" filter="url(#bbburst-blur-3)"></use><use xlink:href="#bbburst-shape-4" width="33.90969643824939" opacity="0.1954800049562473" transform="matrix(1.2309976657808983,0.21712841095070884,-0.21712841095070884,1.2309976657808983,261.71394359644006,202.8667065665765)" fill="#2c2891" filter="url(#bbburst-blur-3)"></use><use xlink:href="#bbburst-shape-6" width="8.983670500279318" opacity="0.7365736825746971" transform="matrix(0.7571748949805855,-0.6532122001395405,0.6532122001395405,0.7571748949805855,232.988079588696,167.2353636944398)" fill="#ff5c58" filter="url(#bbburst-blur-1)"></use><use xlink:href="#bbburst-shape-4" width="21.655566445708388" opacity="0.44445465874887957" transform="matrix(0.8013688858347854,-0.5981704680238858,0.5981704680238858,0.8013688858347854,351.3859164356452,236.84062623593587)" fill="#2c2891" filter="url(#bbburst-blur-2)"></use><use xlink:href="#bbburst-shape-8" width="9.72392087823997" opacity="0.7926466868634724" transform="matrix(0.9903508072276465,-0.13858311088855296,0.13858311088855296,0.9903508072276465,246.4553572170807,6.069163263602093)" fill="none" stroke="#ffa6d5"></use><use xlink:href="#bbburst-shape-8" width="6.4528470252870465" opacity="0.836480982695077" transform="matrix(0.9072847926546048,-0.4205167119362686,0.4205167119362686,0.9072847926546048,301.5608740635503,49.84457957227164)" fill="none" stroke="#ffa6d5"></use><use xlink:href="#bbburst-shape-8" width="17.173889636393906" opacity="0.5869684222248647" transform="matrix(0.999998824667561,0.0015331873651261384,-0.0015331873651261384,0.999998824667561,430.8111284140237,181.75981172803262)" fill="none" stroke="#ffa6d5" filter="url(#bbburst-blur-1)"></use><use xlink:href="#bbburst-shape-10" width="21.49767985138818" opacity="0.3187624903367723" transform="matrix(1.1584764652829995,0.46950216121484156,-0.46950216121484156,1.1584764652829995,718.6227657456184,-339.45310987258244)" fill="none" stroke="#00a19d" filter="url(#bbburst-blur-3)"></use><use xlink:href="#bbburst-shape-8" width="6.149780730844587" opacity="0.8948638529801701" transform="matrix(0.8711826421175791,0.49095906557780766,-0.49095906557780766,0.8711826421175791,562.4583947866131,14.49243585715925)" fill="none" stroke="#00a19d"></use><use xlink:href="#bbburst-shape-8" width="11.581548339325948" opacity="0.7974655741034422" transform="matrix(0.9883462050531138,-0.15222279381586845,0.15222279381586845,0.9883462050531138,244.86739774067462,-16.1540032242645)" fill="none" stroke="#ffbd9b"></use><use xlink:href="#bbburst-shape-10" width="31.473919968714505" opacity="0.019428988442756867" transform="matrix(1.5307625729628853,-0.8480954811906777,0.8480954811906777,1.5307625729628853,-329.60629613966455,-445.02303663303417)" fill="none" stroke="#2c2891" filter="url(#bbburst-blur-4)"></use><use xlink:href="#bbburst-shape-6" width="7.734914781282543" opacity="0.7920639804558538" transform="matrix(0.9861962351496766,0.16558075303791758,-0.16558075303791758,0.9861962351496766,499.5445273606749,-81.00947157806246)" fill="#ffa6d5"></use><use xlink:href="#bbburst-shape-1" width="24.95804814906916" opacity="0.3373922868102712" transform="matrix(0.7533072433366681,0.6576687594348009,-0.6576687594348009,0.7533072433366681,364.4907655816765,17.715412595521684)" fill="#ff5c58" filter="url(#bbburst-blur-2)"></use><use xlink:href="#bbburst-shape-4" width="9.128768719280078" opacity="0.8523354670885973" transform="matrix(0.9998889374237273,0.014903449857313136,-0.014903449857313136,0.9998889374237273,337.32349891094304,-17.62254611675297)" fill="#ffbd9b"></use><use xlink:href="#bbburst-shape-10" width="25.464260168213574" opacity="0.1567671299194039" transform="matrix(1.167798775349198,0.445809399063,-0.445809399063,1.167798775349198,935.5114486162531,-147.3614612795207)" fill="none" stroke="#2c2891" filter="url(#bbburst-blur-3)"></use><use xlink:href="#bbburst-shape-4" width="13.138882052065428" opacity="0.6762523897104031" transform="matrix(0.8744599639203179,-0.48509769273876807,0.48509769273876807,0.8744599639203179,165.47248072100504,-88.06820447006822)" fill="#ffa6d5" filter="url(#bbburst-blur-1)"></use><use xlink:href="#bbburst-shape-4" width="15.907404170729095" opacity="0.6422562822172833" transform="matrix(0.9241403089263259,0.38205325468781826,-0.38205325468781826,0.9241403089263259,448.90585724124264,-101.49268520231493)" fill="#00a19d" filter="url(#bbburst-blur-1)"></use><use xlink:href="#bbburst-shape-10" width="8.604115836871092" opacity="0.821510029519417" transform="matrix(0.9913397268167774,-0.13132229831539313,0.13132229831539313,0.9913397268167774,272.85376641265293,-34.725350624093494)" fill="none" stroke="#00a19d"></use><use xlink:href="#bbburst-shape-4" width="15.523570931634033" opacity="0.6077529399802692" transform="matrix(0.9583686210427174,-0.2855338617409156,0.2855338617409156,0.9583686210427174,428.9922233713544,-73.11580523090356)" fill="#00a19d" filter="url(#bbburst-blur-1)"></use><use xlink:href="#bbburst-shape-4" width="13.25035992448515" opacity="0.7188231045122935" transform="matrix(0.8995913166644918,0.43673271343219316,-0.43673271343219316,0.8995913166644918,542.9157092961366,161.14961769345672)" fill="#00a19d" filter="url(#bbburst-blur-1)"></use><use xlink:href="#bbburst-shape-10" width="7.2250600790126045" opacity="0.9210259127083521" transform="matrix(0.9028189058186954,0.4300209568106346,-0.4300209568106346,0.9028189058186954,603.9867016259298,32.72207049385065)" fill="none" stroke="#ffa6d5"></use><use xlink:href="#bbburst-shape-1" width="28.331042519360743" opacity="0.1359919372079592" transform="matrix(0.9934724200580823,-0.7586254349703397,0.7586254349703397,0.9934724200580823,205.24812507287106,382.3139982761505)" fill="#2c2891" filter="url(#bbburst-blur-3)"></use><use xlink:href="#bbburst-shape-8" width="14.187413528383544" opacity="0.7750010684623115" transform="matrix(0.8724655936035356,0.48867554468996127,-0.48867554468996127,0.8724655936035356,519.2592820347508,120.6799661974232)" fill="none" stroke="#00a19d" filter="url(#bbburst-blur-1)"></use><use xlink:href="#bbburst-shape-6" width="25.689845101443552" opacity="0.2969665467096638" transform="matrix(0.8958380058578569,0.8717650298449797,-0.8717650298449797,0.8958380058578569,478.72478503998974,-151.9553362605336)" fill="#00a19d" filter="url(#bbburst-blur-3)"></use><use xlink:href="#bbburst-shape-1" width="8.29196809896066" opacity="0.7949459774503626" transform="matrix(0.9356115811403958,-0.3530311165265304,0.3530311165265304,0.9356115811403958,347.018634623102,32.794099713090304)" fill="#2c2891"></use><use xlink:href="#bbburst-shape-4" width="33.543195485701155" opacity="0.3379903150115966" transform="matrix(0.7827290286780652,0.6223626496382094,-0.6223626496382094,0.7827290286780652,337.8972430514641,75.12320087232956)" fill="#2c2891" filter="url(#bbburst-blur-2)"></use><use xlink:href="#bbburst-shape-1" width="11.149940734002396" opacity="0.7422761012699652" transform="matrix(0.9750938993189194,-0.22179244241187518,0.22179244241187518,0.9750938993189194,415.81013167967,-25.653981876291482)" fill="#00a19d" filter="url(#bbburst-blur-1)"></use><use xlink:href="#bbburst-shape-4" width="6.896345056132934" opacity="0.8691446181757212" transform="matrix(0.7150580221637053,-0.6990651077970707,0.6990651077970707,0.7150580221637053,68.76201866181282,83.96266749123987)" fill="#ffa6d5"></use><use xlink:href="#bbburst-shape-6" width="6.618342201267757" opacity="0.8508962089362769" transform="matrix(0.8052946759228811,-0.592874763276581,0.592874763276581,0.8052946759228811,226.9403113240649,73.08141370703987)" fill="#2c2891"></use><use xlink:href="#bbburst-shape-1" width="16.45161802521842" opacity="0.4788191656985723" transform="matrix(0.7796940227677918,0.6261607068957442,-0.6261607068957442,0.7796940227677918,878.5493146640754,79.96664748524904)" fill="#2c2891" filter="url(#bbburst-blur-2)"></use><use xlink:href="#bbburst-shape-4" width="8.111197092910466" opacity="0.891528133263101" transform="matrix(0.9899357922594789,0.14151723288560208,-0.14151723288560208,0.9899357922594789,467.24490993256495,50.01985027277908)" fill="#ffa6d5"></use><use xlink:href="#bbburst-shape-1" width="7.1375647923499415" opacity="0.8879698454322295" transform="matrix(0.9932457416513424,0.11602972331034282,-0.11602972331034282,0.9932457416513424,469.3974984824391,-40.57067439773226)" fill="#2c2891"></use><use xlink:href="#bbburst-shape-4" width="20.731412362348447" opacity="0.5426607582971901" transform="matrix(0.9996164827776324,-0.027692731163165726,0.027692731163165726,0.9996164827776324,204.66148393789646,-109.60187341066592)" fill="#2c2891" filter="url(#bbburst-blur-2)"></use><use xlink:href="#bbburst-shape-4" width="6.736779078911736" opacity="0.9315391141803391" transform="matrix(0.9075547975240429,0.4199336727283172,-0.4199336727283172,0.9075547975240429,534.1147975889662,34.85386469437515)" fill="#00a19d"></use><use xlink:href="#bbburst-shape-8" width="13.041251277980503" opacity="0.6730384790742006" transform="matrix(0.9339592475375675,0.3573795236706499,-0.3573795236706499,0.9339592475375675,672.8635291465089,-32.052741671116166)" fill="none" stroke="#2c2891" filter="url(#bbburst-blur-1)"></use><use xlink:href="#bbburst-shape-6" width="9.30415882400303" opacity="0.7266807851015089" transform="matrix(0.9574748424623514,0.28851676909964075,-0.28851676909964075,0.9574748424623514,511.9134299440555,-107.3219301210703)" fill="#00a19d" filter="url(#bbburst-blur-1)"></use><use xlink:href="#bbburst-shape-8" width="9.586660852718467" opacity="0.790750436760697" transform="matrix(0.9963683984022321,0.08514701794761136,-0.08514701794761136,0.9963683984022321,499.11754242776476,64.20825794669565)" fill="none" stroke="#ff5c58"></use><use xlink:href="#bbburst-shape-4" width="8.910202599056742" opacity="0.8399176867605972" transform="matrix(0.9780860169791163,0.20820120890601915,-0.20820120890601915,0.9780860169791163,529.6574958799047,58.98472814227972)" fill="#ffa6d5"></use><use xlink:href="#bbburst-shape-4" width="34.61150958244622" opacity="0.014810511166053475" transform="matrix(1.3916596057403956,-1.0610294726116174,1.0610294726116174,1.3916596057403956,311.53830462461644,-396.99695997349505)" fill="#2c2891" filter="url(#bbburst-blur-4)"></use><use xlink:href="#bbburst-shape-6" width="7.407077372990792" opacity="0.8623857771760879" transform="matrix(0.9996008077332977,-0.02825287912653792,0.02825287912653792,0.9996008077332977,359.1444159654568,-56.007559208742805)" fill="#ffbd9b"></use><use xlink:href="#bbburst-shape-4" width="7.362011171374313" opacity="0.8308300180171471" transform="matrix(0.9992998631337646,0.037413681198716485,-0.037413681198716485,0.9992998631337646,403.98614024460323,-75.62659895102541)" fill="#ff5c58"></use><use xlink:href="#bbburst-shape-6" width="28.49856151095651" opacity="0.42002974996305364" transform="matrix(0.9801662281378872,0.19817710568566477,-0.19817710568566477,0.9801662281378872,350.6824139897467,239.5793003637225)" fill="#2c2891" filter="url(#bbburst-blur-2)"></use><use xlink:href="#bbburst-shape-10" width="20.021069251997723" opacity="0.5750633107980531" transform="matrix(0.9923821688956044,-0.12319752780821615,0.12319752780821615,0.9923821688956044,473.37382826798057,-133.51044513701322)" fill="none" stroke="#ffa6d5" filter="url(#bbburst-blur-1)"></use><use xlink:href="#bbburst-shape-6" width="12.217455977733621" opacity="0.7169418465497789" transform="matrix(0.9751273657144195,0.22164525854359413,-0.22164525854359413,0.9751273657144195,572.9075766513173,98.5257938483116)" fill="#ff5c58" filter="url(#bbburst-blur-1)"></use><use xlink:href="#bbburst-shape-4" width="4.4043878953979565" opacity="0.9800747826494646" transform="matrix(0.7219518784012741,0.6919432673802615,-0.6919432673802615,0.7219518784012741,680.9448780557618,116.56967163543385)" fill="#ff5c58"></use><use xlink:href="#bbburst-shape-4" width="16.763176966551725" opacity="0.5936386259054504" transform="matrix(0.9274647220374269,0.37391067031583675,-0.37391067031583675,0.9274647220374269,533.539476123685,208.5708825585831)" fill="#00a19d" filter="url(#bbburst-blur-1)"></use><use xlink:href="#bbburst-shape-4" width="25.088470256234242" opacity="0.3937807654500475" transform="matrix(0.8801128187021674,0.4747646009930877,-0.4747646009930877,0.8801128187021674,335.4968674312538,165.29178518947668)" fill="#00a19d" filter="url(#bbburst-blur-2)"></use><use xlink:href="#bbburst-shape-4" width="17.953433543421824" opacity="0.5841165274412543" transform="matrix(0.7684926868436588,0.6398585705199347,-0.6398585705199347,0.7684926868436588,462.7948279045844,68.45931670030103)" fill="#00a19d" filter="url(#bbburst-blur-1)"></use><use xlink:href="#bbburst-shape-1" width="20.017639139955108" opacity="0.5980608214074339" transform="matrix(0.9468460159398383,-0.32168714941516613,0.32168714941516613,0.9468460159398383,83.48616752928777,54.48707017024543)" fill="#00a19d" filter="url(#bbburst-blur-1)"></use><use xlink:href="#bbburst-shape-4" width="7.083066187191029" opacity="0.870176286531053" transform="matrix(0.971832681608733,0.23567188834729283,-0.23567188834729283,0.971832681608733,505.74945187818264,-46.0437618524474)" fill="#00a19d"></use><use xlink:href="#bbburst-shape-10" width="24.20020465287708" opacity="0.10771444302625865" transform="matrix(1.4451186839709074,-0.98698125070246,0.98698125070246,1.4451186839709074,-175.805426888101,-532.8256502639574)" fill="none" stroke="#ffa6d5" filter="url(#bbburst-blur-4)"></use><use xlink:href="#bbburst-shape-10" width="8.186515944586274" opacity="0.9216878246121827" transform="matrix(0.9393150121646308,0.3430558379071249,-0.3430558379071249,0.9393150121646308,534.635002199403,58.08781341242877)" fill="none" stroke="#ffa6d5"></use><use xlink:href="#bbburst-shape-6" width="22.795093806229634" opacity="0.49978523607336656" transform="matrix(0.8928135698696933,-0.4504263862791947,0.4504263862791947,0.8928135698696933,392.6966878435345,-83.00195605542376)" fill="#2c2891" filter="url(#bbburst-blur-2)"></use><use xlink:href="#bbburst-shape-1" width="6.76747845305402" opacity="0.8709711815467853" transform="matrix(0.9575166576706208,-0.2883779642817446,0.2883779642817446,0.9575166576706208,329.2715013089912,50.85169943757944)" fill="#2c2891"></use><use xlink:href="#bbburst-shape-6" width="35.77475321551784" opacity="0.13588176582637757" transform="matrix(0.9004024396328298,-0.8670498524901831,0.8670498524901831,0.9004024396328298,-261.85211811377235,-193.34725178669527)" fill="#ffa6d5" filter="url(#bbburst-blur-3)"></use><use xlink:href="#bbburst-shape-10" width="20.790954036673877" opacity="0.24584849787877472" transform="matrix(1.2363250719640997,-0.1843917471932075,0.1843917471932075,1.2363250719640997,455.0575349319879,215.77192432955803)" fill="none" stroke="#ffa6d5" filter="url(#bbburst-blur-3)"></use><use xlink:href="#bbburst-shape-6" width="19.920560437332185" opacity="0.5041477836972355" transform="matrix(0.9939703224286397,0.10964943288091361,-0.10964943288091361,0.9939703224286397,300.3120652910132,180.00099614402825)" fill="#00a19d" filter="url(#bbburst-blur-2)"></use><use xlink:href="#bbburst-shape-1" width="6.8143673642790015" opacity="0.9301200445685505" transform="matrix(0.731986544894273,-0.6813190868409196,0.6813190868409196,0.731986544894273,98.68460497381949,92.29444473584459)" fill="#00a19d"></use><use xlink:href="#bbburst-shape-4" width="29.044556070596762" opacity="0.2950012307563671" transform="matrix(1.2497594413542588,0.02452220923756062,-0.02452220923756062,1.2497594413542588,601.2254503892107,-338.40551267378555)" fill="#ff5c58" filter="url(#bbburst-blur-3)"></use><use xlink:href="#bbburst-shape-8" width="19.646626403805634" opacity="0.5287995316600926" transform="matrix(0.8050045298904189,0.593268663301801,-0.593268663301801,0.8050045298904189,446.46038575622725,179.3816722149537)" fill="none" stroke="#2c2891" filter="url(#bbburst-blur-2)"></use><use xlink:href="#bbburst-shape-1" width="7.818605964884076" opacity="0.7578963001620105" transform="matrix(0.9884712585017549,0.15140862299075628,-0.15140862299075628,0.9884712585017549,565.0380623689326,-7.448186814226858)" fill="#ffbd9b" filter="url(#bbburst-blur-1)"></use><use xlink:href="#bbburst-shape-10" width="22.82194678950764" opacity="0.32508207528285815" transform="matrix(1.0633972149317554,0.6570284341452706,-0.6570284341452706,1.0633972149317554,930.4360496328277,85.36604739386257)" fill="none" stroke="#00a19d" filter="url(#bbburst-blur-3)"></use><use xlink:href="#bbburst-shape-6" width="13.252216507451301" opacity="0.7628520009897698" transform="matrix(0.7895379012862307,0.6137018025332289,-0.6137018025332289,0.7895379012862307,537.4216869687864,108.66600231285543)" fill="#00a19d" filter="url(#bbburst-blur-1)"></use><use xlink:href="#bbburst-shape-10" width="8.716058530613397" opacity="0.804561676391219" transform="matrix(0.8795033050572456,0.4758927782530237,-0.4758927782530237,0.8795033050572456,543.5246798274786,122.84341990586108)" fill="none" stroke="#ffa6d5"></use><use xlink:href="#bbburst-shape-6" width="8.133761503256453" opacity="0.7605842982972834" transform="matrix(0.8481445826235778,-0.5297648223186181,0.5297648223186181,0.8481445826235778,243.34794638809365,-27.442724391574075)" fill="#ffa6d5" filter="url(#bbburst-blur-1)"></use><use xlink:href="#bbburst-shape-6" width="6.377311874431758" opacity="0.9262842686085133" transform="matrix(0.7760497302567858,-0.6306717182246007,0.6306717182246007,0.7760497302567858,142.48161559091812,58.53536052080614)" fill="#2c2891"></use><use xlink:href="#bbburst-shape-6" width="15.527845539234454" opacity="0.5692044040411315" transform="matrix(0.9995884897148133,0.028685383554323162,-0.028685383554323162,0.9995884897148133,569.1243487734206,101.036886074074)" fill="#00a19d" filter="url(#bbburst-blur-1)"></use><use xlink:href="#bbburst-shape-4" width="9.818865921824143" opacity="0.7509159783640615" transform="matrix(0.9973066371672286,-0.07334488027254406,0.07334488027254406,0.9973066371672286,370.8473740094254,113.41890813388557)" fill="#ffa6d5" filter="url(#bbburst-blur-1)"></use><use xlink:href="#bbburst-shape-1" width="5.794781613927409" opacity="0.9305566992446688" transform="matrix(0.7399914079256499,0.6726163216843719,-0.6726163216843719,0.7399914079256499,693.9460091589528,117.70962048259696)" fill="#00a19d"></use><use xlink:href="#bbburst-shape-6" width="12.528867485312349" opacity="0.6805483456675956" transform="matrix(0.9513750016447705,-0.3080350730767731,0.3080350730767731,0.9513750016447705,152.93402926939686,103.63816980478913)" fill="#ffa6d5" filter="url(#bbburst-blur-1)"></use><use xlink:href="#bbburst-shape-4" width="6.517759533101341" opacity="0.8926137548461879" transform="matrix(0.9999846645532323,0.005538109637725094,-0.005538109637725094,0.9999846645532323,431.4740341122468,35.74022645788949)" fill="#2c2891"></use><use xlink:href="#bbburst-shape-6" width="11.79499653740212" opacity="0.7841631020861649" transform="matrix(0.7883533908393887,-0.6152226679439227,0.6152226679439227,0.7883533908393887,235.33501468419058,43.28745332915145)" fill="#2c2891"></use><use xlink:href="#bbburst-shape-4" width="33.82086578568771" opacity="0.013221492068305363" transform="matrix(1.386298673759197,1.0680243382683243,-1.0680243382683243,1.386298673759197,1057.7551273916358,-536.7546096696185)" fill="#ffa6d5" filter="url(#bbburst-blur-4)"></use><use xlink:href="#bbburst-shape-4" width="9.7317412479667" opacity="0.8363942858541509" transform="matrix(0.8691835976144943,0.4944895081171338,-0.4944895081171338,0.8691835976144943,577.7873145010774,121.84083294183193)" fill="#00a19d"></use><use xlink:href="#bbburst-shape-10" width="27.816376968386443" opacity="0.3113083830714407" transform="matrix(1.2011564938768218,-0.3460102270418326,0.3460102270418326,1.2011564938768218,313.6497003869406,226.53692662882986)" fill="none" stroke="#ff5c58" filter="url(#bbburst-blur-3)"></use><use xlink:href="#bbburst-shape-4" width="26.45699818126277" opacity="0.23882599306698626" transform="matrix(0.8989428124843051,0.8685630776649487,-0.8685630776649487,0.8989428124843051,426.0461507786648,-117.86535479150888)" fill="#00a19d" filter="url(#bbburst-blur-3)"></use><use xlink:href="#bbburst-shape-6" width="25.635542365072478" opacity="0.0002923499787365058" transform="matrix(1.737132867401113,-0.2118239858816443,0.2118239858816443,1.737132867401113,32.90816422805615,-659.1955690695886)" fill="#ff5c58" filter="url(#bbburst-blur-4)"></use><use xlink:href="#bbburst-shape-4" width="6.238329770982767" opacity="0.9007696212943097" transform="matrix(0.7852761436318662,-0.6191456841831854,0.6191456841831854,0.7852761436318662,108.03882556131242,72.27071183208585)" fill="#2c2891"></use><use xlink:href="#bbburst-shape-6" width="18.826544658295237" opacity="0.364068329424995" transform="matrix(0.9996949265960045,-0.024699265944747056,0.024699265944747056,0.9996949265960045,408.9753668134522,-284.41517295915565)" fill="#ff5c58" filter="url(#bbburst-blur-2)"></use><use xlink:href="#bbburst-shape-6" width="15.529708345392818" opacity="0.6212956974340709" transform="matrix(0.8614569918357949,-0.5078305339551996,0.5078305339551996,0.8614569918357949,61.739030812976324,-52.64460772988144)" fill="#00a19d" filter="url(#bbburst-blur-1)"></use><use xlink:href="#bbburst-shape-6" width="21.6654441754589" opacity="0.13528743859206693" transform="matrix(1.2408367169864978,0.15107693992853538,-0.15107693992853538,1.2408367169864978,202.50256851483636,-400.6939389237323)" fill="#ffbd9b" filter="url(#bbburst-blur-3)"></use><use xlink:href="#bbburst-shape-10" width="38.69026348787739" opacity="0.22111368417197863" transform="matrix(1.0390319778010981,0.6949190953677546,-0.6949190953677546,1.0390319778010981,948.7677939689538,-224.57184500420863)" fill="none" stroke="#00a19d" filter="url(#bbburst-blur-3)"></use><use xlink:href="#bbburst-shape-8" width="19.503810477881316" opacity="0.5704638458530737" transform="matrix(0.98619015107991,-0.16561698558114218,0.16561698558114218,0.98619015107991,515.938809669127,31.080383015034386)" fill="none" stroke="#ff5c58" filter="url(#bbburst-blur-1)"></use><use xlink:href="#bbburst-shape-4" width="9.701644467827391" opacity="0.8106483423703533" transform="matrix(0.8466946471521895,0.5320791054757078,-0.5320791054757078,0.8466946471521895,612.7826685178691,143.8598957538003)" fill="#ffa6d5"></use><use xlink:href="#bbburst-shape-10" width="19.403653337780884" opacity="0.37778953162051454" transform="matrix(0.9731851542871678,0.23002316290987185,-0.23002316290987185,0.9731851542871678,732.0791660300487,-118.5529494718698)" fill="none" stroke="#00a19d" filter="url(#bbburst-blur-2)"></use><use xlink:href="#bbburst-shape-1" width="8.842116307751581" opacity="0.8100466429091351" transform="matrix(0.9193755692475027,0.393380938367418,-0.393380938367418,0.9193755692475027,480.63079738606507,75.55750366446341)" fill="#00a19d"></use><use xlink:href="#bbburst-shape-1" width="25.585685695523193" opacity="0.329742137439206" transform="matrix(1.1540113475763094,-0.4803725738061141,0.4803725738061141,1.1540113475763094,395.2706728305401,168.41080599904194)" fill="#ffbd9b" filter="url(#bbburst-blur-3)"></use><use xlink:href="#bbburst-shape-8" width="16.13198131571326" opacity="0.6596093089719526" transform="matrix(0.7615907240493628,0.6480583068227482,-0.6480583068227482,0.7615907240493628,649.9972411266351,-63.008307826881804)" fill="none" stroke="#ffa6d5" filter="url(#bbburst-blur-1)"></use><use xlink:href="#bbburst-shape-1" width="21.586247869356317" opacity="0.16582953711473525" transform="matrix(1.1473211845000084,0.49613919377277355,-0.49613919377277355,1.1473211845000084,511.49216147600066,303.64460742110265)" fill="#2c2891" filter="url(#bbburst-blur-3)"></use><use xlink:href="#bbburst-shape-1" width="18.49221533359207" opacity="0.37007666879556034" transform="matrix(0.9702654782104856,0.24204318167008496,-0.24204318167008496,0.9702654782104856,770.1693301421247,-15.679037955067429)" fill="#2c2891" filter="url(#bbburst-blur-2)"></use><use xlink:href="#bbburst-shape-10" width="37.67764142328327" opacity="-0.10000732196658957" transform="matrix(1.6553349763711949,-0.5677729440561393,0.5677729440561393,1.6553349763711949,-210.56492191876788,-599.192413170244)" fill="none" stroke="#00a19d" filter="url(#bbburst-blur-4)"></use><use xlink:href="#bbburst-shape-4" width="7.921945382687212" opacity="0.7505374967526737" transform="matrix(0.999819613880329,0.018993148769747566,-0.018993148769747566,0.999819613880329,513.6821442004313,22.183384699280793)" fill="#ffa6d5" filter="url(#bbburst-blur-1)"></use><use xlink:href="#bbburst-shape-8" width="6.337394870283085" opacity="0.8858452856568069" transform="matrix(0.9028819245673674,0.42988862544794865,-0.42988862544794865,0.9028819245673674,620.4447745037216,38.89449888717871)" fill="none" stroke="#00a19d"></use><use xlink:href="#bbburst-shape-6" width="11.213779246281726" opacity="0.6697521666747583" transform="matrix(0.998610071467407,0.052706025878074554,-0.052706025878074554,0.998610071467407,353.70740023462776,135.42389920982083)" fill="#00a19d" filter="url(#bbburst-blur-1)"></use><use xlink:href="#bbburst-shape-4" width="9.532851714116736" opacity="0.8838238561506752" transform="matrix(0.8823907619230764,-0.4705173145303078,0.4705173145303078,0.8823907619230764,256.06367310345496,29.709612200159086)" fill="#00a19d"></use><use xlink:href="#bbburst-shape-6" width="20.038753273072565" opacity="0.3881541254190767" transform="matrix(0.948361418530164,0.3171917713993461,-0.3171917713993461,0.948361418530164,418.67833520763156,-239.55551746020865)" fill="#00a19d" filter="url(#bbburst-blur-2)"></use><use xlink:href="#bbburst-shape-4" width="27.028762422836106" opacity="0.4120208572712122" transform="matrix(0.9997537659825368,-0.022190254701893394,0.022190254701893394,0.9997537659825368,226.9973028078095,-217.11560215898234)" fill="#00a19d" filter="url(#bbburst-blur-2)"></use><use xlink:href="#bbburst-shape-4" width="26.364701331302207" opacity="0.42524207871570907" transform="matrix(0.9973430456561173,-0.07284812476227438,0.07284812476227438,0.9973430456561173,158.94687474587255,-163.44133963082265)" fill="#ffa6d5" filter="url(#bbburst-blur-2)"></use><use xlink:href="#bbburst-shape-10" width="27.01078614803821" opacity="0.2756311965832575" transform="matrix(1.1414683052437564,0.509460605075551,-0.509460605075551,1.1414683052437564,568.7674455375433,261.90832392863973)" fill="none" stroke="#00a19d" filter="url(#bbburst-blur-3)"></use><use xlink:href="#bbburst-shape-4" width="21.755873151755285" opacity="0.5929606522870161" transform="matrix(0.9950328728408689,-0.09954688325631829,0.09954688325631829,0.9950328728408689,212.66003427130795,125.00627763473864)" fill="#00a19d" filter="url(#bbburst-blur-1)"></use><use xlink:href="#bbburst-shape-10" width="27.3833958593163" opacity="0.33513284199881876" transform="matrix(0.9656396886167661,0.2598845739325729,-0.2598845739325729,0.9656396886167661,443.1937138857774,-285.20344690995944)" fill="none" stroke="#ffa6d5" filter="url(#bbburst-blur-2)"></use><use xlink:href="#bbburst-shape-4" width="5.692565301458977" opacity="0.9526270998373865" transform="matrix(0.9898338356843864,0.14222861081489566,-0.14222861081489566,0.9898338356843864,465.01862849546023,21.960194942785165)" fill="#2c2891"></use><use xlink:href="#bbburst-shape-4" width="29.31007060974488" opacity="0.12086432616374032" transform="matrix(0.9456460942844416,-0.8174677145701725,0.8174677145701725,0.9456460942844416,-312.0849821706397,170.3970547191849)" fill="#2c2891" filter="url(#bbburst-blur-3)"></use><use xlink:href="#bbburst-shape-6" width="31.533041541226694" opacity="0.040482862018093924" transform="matrix(1.7215308909280163,-0.3143746039052627,0.3143746039052627,1.7215308909280163,479.11756856771785,80.49831185705307)" fill="#00a19d" filter="url(#bbburst-blur-4)"></use><use xlink:href="#bbburst-shape-4" width="7.029831623580769" opacity="0.8987584813410516" transform="matrix(0.9602240917303502,0.2792305385530461,-0.2792305385530461,0.9602240917303502,493.2081776753147,-28.046005038656915)" fill="#2c2891"></use><use xlink:href="#bbburst-shape-8" width="8.021903149432735" opacity="0.9179742016172416" transform="matrix(0.9782578422250373,-0.20739236756740584,0.20739236756740584,0.9782578422250373,342.6270678791933,-12.646938678790491)" fill="none" stroke="#ffa6d5"></use><use xlink:href="#bbburst-shape-4" width="7.583758474699353" opacity="0.8107671442008084" transform="matrix(0.8053070263627221,0.5928579874563806,-0.5928579874563806,0.8053070263627221,691.0802301782287,12.365920628265656)" fill="#ffbd9b"></use><use xlink:href="#bbburst-shape-8" width="28.417361852751164" opacity="0.2336568200174145" transform="matrix(1.085197733444744,-0.620359475889899,0.620359475889899,1.085197733444744,35.569216754928846,-355.03766031804633)" fill="none" stroke="#2c2891" filter="url(#bbburst-blur-3)"></use><use xlink:href="#bbburst-shape-6" width="6.830568994024116" opacity="0.9608221047345527" transform="matrix(0.817196601803417,0.5763590148518087,-0.5763590148518087,0.817196601803417,625.7718806775505,53.634569347060165)" fill="#00a19d"></use></svg>